<svg id="CoffeeMug" xmlns="http://www.w3.org/2000/svg" viewBox="0 0 201.53 177.72">
            <defs>
                <clipPath id="clip-path" transform="translate(-25.04 -50.04)">
                    <rect id="SteamClipParth" x="79" y="46" width="86" height="80" fill="none" />
                </clipPath>
                <style>
                    .cls-8,
                    .cls-9 {
                        fill: none
                    }

                    .cls-2 {
                        fill: #fef4eb
                    }

                    .cls-3 {
                        fill: #dbd1c8
                    }

                    .cls-5 {
                        fill: #212b18
                    }

                    .cls-8,
                    .cls-9 {
                        stroke-width: 2px;
                        stroke: #6f4c52;
                        stroke-linecap: round;
                        stroke-linejoin: round
                    }

                    .cls-9 {
                        stroke: #fff;
                        stroke-width: 4px
                    }
                </style>
            </defs>
            <g id="Mug">
                <path class="cls-2"
                    d="M26.52 186.25c.1-1.1-.45 2.51 0 0zM226.46 131.57a17.39 17.39 0 00-5.93-11.86 22.21 22.21 0 00-12.42-4.89A32.46 32.46 0 00191.94 118a25.67 25.67 0 00-4.66 2.75 19.6 19.6 0 00-5.34-8.27c-3.81-3.52-8.63-5.51-13.52-7s-9.74-2.83-14.61-4.24a145.78 145.78 0 00-14.68-3.81 82.59 82.59 0 00-18-1c-1.25 0-2.51.1-3.76.17a8 8 0 00-2.16-.54c-10.89-1.32-22 .7-32.39 4-10.15 3.21-20.57 7.28-27.24 16a23.57 23.57 0 00-3.87 7.54 13 13 0 00-.22 5.65 10.83 10.83 0 00.41 1.68s.29.6.43 1c0 .13.09.83.1.92a2.51 2.51 0 00.25.68 19.25 19.25 0 00.28 6.38c1 5 4 9.27 6.19 13.8.13.27.25.56.39.84l.18.51c-1 .3-2 .63-2.91.95a54.93 54.93 0 00-12.61 6.14 52.11 52.11 0 00-10.61 9.16 23 23 0 00-5.43 10.06 16.9 16.9 0 00-1.19 3 12.73 12.73 0 00-.31 1.36l-.1.59c0 .22-.07.62-.15 1.29 0 .28-.07.56-.1.85a15.8 15.8 0 00.07 3.15 22 22 0 007.59 14.4c4.4 3.76 9.78 6 15.27 7.71 2 .61 4 1.14 6 1.65A47.53 47.53 0 0066 220a112.83 112.83 0 0023.58 4c2.12.17 4.23.31 6.35.4a160.93 160.93 0 0050.8 1 153.5 153.5 0 0024.87-5.54c7.71-2.41 15.63-5.22 22.56-9.45a37.77 37.77 0 009.84-8.26 31.66 31.66 0 003-4.35 24.44 24.44 0 002.6-3.24c4.16-6.32 3.45-14.77-.17-21.16A22.66 22.66 0 00203 166.3a53.71 53.71 0 0014.2-11.54C222.62 148.45 227.33 140.16 226.46 131.57zM203.4 153.22c-.12.09-.24.18-.35.28l-.1.07c-.34.25-.68.51-1 .75-.69.49-1.4 1-2.11 1.42-1.4.88-2.84 1.66-4.29 2.43s-2.65 1.41-4 2.07l-.33-.2A56.83 56.83 0 00181 155.26c.44-1.2.88-2.4 1.3-3.6a96.25 96.25 0 004.59-17.45.25.25 0 010-.07 1.89 1.89 0 00.63-.47c1.69-1.95 3.46-3.83 5.31-5.62.72-.7 1.46-1.37 2.2-2a32.52 32.52 0 013.31-1c.74-.19 1.48-.34 2.22-.47l.37-.06 1.17-.11a27.41 27.41 0 014.53 0l.76.09.63.1a21 21 0 012.34.56c.3.09.61.19.91.3l.34.13.09 0a15.86 15.86 0 011.93 1.08l.33.24 0 0c.24.27.53.51.78.76l.13.12.08.12c.21.34.41.68.59 1 0 .08.23.62.26.75a8.85 8.85 0 01.23 1c0 .09.06.51.06.62a11.2 11.2 0 010 1.42c0 .18 0 .35 0 .53a.45.45 0 010 .13v0c0 .35-.12.7-.19 1.05-.17.82-.38 1.62-.63 2.42-.19.64-.41 1.28-.65 1.92l-.26.65c-.13.32-.28.64-.43 1a34 34 0 01-2 3.64c-.39.61-.8 1.2-1.22 1.79l-.38.51c-.08.1-.2.24-.22.28l-.4.48A44.65 44.65 0 01203.4 153.22zm-.35.27zM72.32 137.38a.93.93 0 000 .13l-.12-.27A1 1 0 0072.32 137.38zM60.45 157.7c.09.34 0 .79 0-.07z"
                    transform="translate(-25.04 -50.04)" />
                <path class="cls-3"
                    d="M97.78 197.25a.88.88 0 000-.16l0 0v.14zM69.27 120.11l0 0 1.06-.78c.81-.58 1.64-1.14 2.48-1.67 1.61-1 3.26-1.94 4.94-2.82.85-.44 1.7-.86 2.57-1.27l1.23-.55a3.76 3.76 0 01.62-.27l-.12 0 .29-.09q2.67-1.06 5.41-1.9a83.48 83.48 0 0111.5-2.58l.83-.12.11 0c.5-.07 1-.12 1.5-.18 1.25-.14 2.5-.25 3.75-.34q3.54-.24 7.1-.25c4.82 0 9.65.29 14.45.71 2.37.2 4.74.46 7.11.74L136 109l.9.11c1.19.16 2.38.33 3.56.51a110.93 110.93 0 0111 2.07c2 .5 4 1.08 5.94 1.78.5.19 1 .37 1.51.57l.22.1.29.11.08 0h0c.92.4 1.82.84 2.7 1.31s1.83 1 2.7 1.62c.39.26.78.54 1.16.81.09.07.38.32.36.29l.22.18c.76.65 1.46 1.35 2.18 2.06a9 9 0 001.78 1.55 12.32 12.32 0 001.59.65 7.4 7.4 0 00.2 1.16 2.55 2.55 0 001.16 1.51 2.58 2.58 0 003.46-.91 3.59 3.59 0 00.69-2.1 2.81 2.81 0 00-.69-1.78 2.58 2.58 0 00.17-1.23 7.1 7.1 0 00-1.27-3.93 21.57 21.57 0 00-2.43-2.71 37 37 0 00-5.11-4 47.16 47.16 0 00-11.12-5.07c-8.37-2.72-17.29-3.86-26-5a120.57 120.57 0 00-29.89-.5 70 70 0 00-25.42 7.7A56.16 56.16 0 0064.36 114a34.71 34.71 0 00-4.82 5.17c-1.32 1.82-2.52 3.74-3.66 5.68a2.92 2.92 0 004.58 3.53 53.88 53.88 0 018.31-7.87z"
                    transform="translate(-25.04 -50.04)" />
                <path class="cls-3" d="M159.38,114.21a1.31,1.31,0,0,1-.29-.11c-.15,0,0,.07.34.14l0,0Z"
                    transform="translate(-25.04 -50.04)" />
                <path
                    d="M180.75,125.67a1.65,1.65,0,0,0-.36-.16,7.86,7.86,0,0,0-.52-1.82c-1.88-4.38-6.44-6.22-10.78-7.24a2.74,2.74,0,0,0-.28,0l-.2-.1a6.84,6.84,0,0,0-3.42-2.33,38.54,38.54,0,0,0-5.07-1.32l-2.2-.84a2.2,2.2,0,0,0-1.77.16,71.2,71.2,0,0,0-6.8-2.25A38.86,38.86,0,0,0,137,108c-2-.37-4-.68-6.07-.92a101.19,101.19,0,0,0-25.67.48,120.31,120.31,0,0,0-14.07,2.8c-.45.11-.9.24-1.35.36a2.33,2.33,0,0,0-1.91-.23L80.73,113c-6.16,2.1-12.28,4.37-16.89,9.18a19.33,19.33,0,0,0-3.57,5c-1.07,2.25-1.93,4.94.35,6.78a9.37,9.37,0,0,0,4.27,1.68,2.9,2.9,0,0,0,1.91,2.77c7.37,2.42,15.13,3.3,22.85,3.93,1.37,1.57,3.71,1.71,5.84,2,2.87.36,5.73.7,8.6,1a149.8,149.8,0,0,0,16.81.94A89.51,89.51,0,0,0,135.34,145a2.2,2.2,0,0,0,1.63.56,46.69,46.69,0,0,0,8.83-1.49,118.54,118.54,0,0,0,16.3-4,59.44,59.44,0,0,0,11.31-4.91,18.81,18.81,0,0,0,1.67-1.13,2,2,0,0,0,.24,0,8.73,8.73,0,0,0,6.35-4.84A2.65,2.65,0,0,0,180.75,125.67Z"
                    transform="translate(-25.04 -50.04)" fill="#351c14" />
                <path class="cls-5"
                    d="M185.34 180.29a11.56 11.56 0 00-3.89-5.5l2.27-.67a17 17 0 013.49 3.55c.37.51 1.22.05.87-.51a14.9 14.9 0 00-3-3.45l1.22-.35 1.42-.4 0 0a11.09 11.09 0 013.27 2.63 32 32 0 012.44 3.45h0a5.62 5.62 0 00-.33-2 8.91 8.91 0 00-1.2-2 11.75 11.75 0 00-2.68-2.49l2.17-.62a14.51 14.51 0 016.34 6.73c.2.45 1 .12.8-.33a14.17 14.17 0 00-5.67-6.82q2.74-.83 5.43-1.83s0 .08 0 .12c.4.72 1.23 1.22 1.74 1.89a11.08 11.08 0 011.28 2.24c.2.46.91.13.79-.33a8.34 8.34 0 00-1.26-2.68 6.07 6.07 0 00-1.53-1.63l.17-.07c1.31-.53 2.57-1.13 3.82-1.76a.8.8 0 00.17.31A27 27 0 01211 187c-.3 7.36-4.49 13.31-10.08 17.78a103.48 103.48 0 01-10.34 6.86.66.66 0 00.67 1.13c6.67-3.5 13.53-7.88 17.71-14.33a24.21 24.21 0 002.15-21.11 28.82 28.82 0 00-6.42-10.56A47.25 47.25 0 00224.56 145a28.15 28.15 0 001.62-12.38A22.84 22.84 0 00222 121.08a18.7 18.7 0 00-9.17-6.54 24.35 24.35 0 00-12.87-.58A31.44 31.44 0 00188 119.39a15.17 15.17 0 00-2.09-3.43c-2.43-3-5.79-5.2-9.06-7.2a78.65 78.65 0 00-22-9.12 67.66 67.66 0 00-13.19-2c-.68 0-.64 1 0 1a90.23 90.23 0 0121.72 5.34 80.17 80.17 0 0110 4.7 51.54 51.54 0 019.23 6.16 16.43 16.43 0 013.78 4.71 12.63 12.63 0 011.24 6.05.51.51 0 001 .13 8.26 8.26 0 00-.15-5.24.51.51 0 00.18-.26 33.48 33.48 0 019.88-4.13 25.11 25.11 0 0111.37-.39 18.28 18.28 0 019.31 5 20.59 20.59 0 015.09 10.76 25.63 25.63 0 01-.91 11.9 37.42 37.42 0 01-6.15 10.37 44 44 0 01-16.8 13.1 99.9 99.9 0 01-13.91 4.52c-4.12 1.15-8.24 2.34-12.31 3.64a123.62 123.62 0 005.66-11.49.64.64 0 00.28 0 46.93 46.93 0 0020.55-7.9c6.26-4.25 11.92-10 14.93-17.05a20.54 20.54 0 001.33-11.55 9.07 9.07 0 012.14 8 .48.48 0 00.92.26 10 10 0 00-1.43-8.62 11.89 11.89 0 00-8-4.82c-7-1.16-13.46 2.68-18.28 7.37a33.31 33.31 0 00-3.85 4.33c.12-.85.23-1.71.32-2.56.06-.55-.85-.67-1-.13-2.35 11.74-5.51 23.27-10.53 34.18A120.91 120.91 0 01157.82 195c-2.13 2.4-4.36 4.74-6.7 6.95a17.48 17.48 0 01-8.39 4.8.46.46 0 00-.37.35c-.58.13-1.18.24-1.78.33a135.75 135.75 0 01-14.65 1.42 130.83 130.83 0 01-14.28-.25c-4.19-.29-8.62-.43-12.65-1.67a40.67 40.67 0 01-4.11-1.54l0 0a108.27 108.27 0 01-21.21-21.55A113.85 113.85 0 0158.9 155.35c-2-5.76-3.83-11.67-5.38-17.58-.12-.47-.8-.26-.72.2a111.4 111.4 0 004.89 18.58c-4 1.7-7.91 3.64-11.75 5.69a72.11 72.11 0 00-10.48 6.51c-6 4.69-11.1 11.82-10.35 19.82.44 4.72 3 8.32 6 11.82.31.37 1-.11.68-.52-2.16-3.11-4.36-6.68-4.91-10.49A17.75 17.75 0 0129 178.82c3.57-6.84 10.38-11 17-14.6 4-2.18 8.17-4.17 12.31-6.16.39 1.07.82 2.13 1.24 3.19a52.73 52.73 0 00-13.33 8 48.74 48.74 0 00-5.87 5.62c-1.78 2-3.71 4.24-4.39 6.93a.4.4 0 00.77.21c.83-2.6 3.24-4.75 5.08-6.68a59.2 59.2 0 015.58-5.16A60.05 60.05 0 0160 162.44c.29.69.59 1.37.89 2.05h-.07a37.72 37.72 0 00-10.5 6.06 47.43 47.43 0 00-8.74 8.94c-.25.33.3.76.57.44a55.76 55.76 0 019-8.31 85.08 85.08 0 0110.13-6.07l.06-.05c.21.47.43.93.65 1.4a20.4 20.4 0 00-4.47 2.44 44.17 44.17 0 00-4.4 3.29A42.11 42.11 0 0045.72 181c-.36.52.47 1 .84.49A48.68 48.68 0 0154 173.8a46.78 46.78 0 014.25-3.16c1.38-.9 2.91-1.64 4.25-2.59.26.53.5 1.07.76 1.59l.25.48a21.15 21.15 0 00-3.39 2.19 44.5 44.5 0 00-3.67 2.9A42.37 42.37 0 0050 182.42c-.35.49.47 1.13.85.65a50.65 50.65 0 016.49-6.69 43.87 43.87 0 013.82-3c1-.66 2.08-1.22 3-1.92.29.57.58 1.15.89 1.71a10.72 10.72 0 00-3.24 2.19 43.25 43.25 0 00-3.27 2.93 36.09 36.09 0 00-5.24 6.76c-.32.53.45.94.8.47a53.58 53.58 0 015.46-6.2c1-.94 2-1.84 3-2.68a19.94 19.94 0 003.07-2.4c.46.83.91 1.65 1.39 2.46a8.22 8.22 0 00-3 2 23.37 23.37 0 00-3.08 3 19.26 19.26 0 00-3.91 7.19h0a43.06 43.06 0 015-6.35 27.9 27.9 0 012.77-2.55c.85-.69 2.2-1.28 2.88-2.18l.5.82a11.55 11.55 0 00-1.48 1.17A18 18 0 0064.59 182a18.65 18.65 0 00-2.81 5c-.19.5.64.85.86.37a19.57 19.57 0 013-4.6 22.08 22.08 0 011.8-1.82c.46-.42 1-.76 1.51-1.17l.43.65a16.15 16.15 0 00-5 15.31 18.36 18.36 0 003.55 7.58 18.77 18.77 0 007 5.35.36.36 0 00.37-.62 23.51 23.51 0 01-5.79-5.38A17.13 17.13 0 0166 195.58a14.61 14.61 0 014.28-13.75A90.74 90.74 0 0081 195.14a80 80 0 009.16 8.08c-.67-.35-1.34-.72-2-1.13-.4-.27-.88.34-.52.66A29.36 29.36 0 0097 208c3.93 1.51 8 1.87 12.19 2.22a125.88 125.88 0 0030.35-1.09c4.65-.74 9.57-1.91 13-5.41a.58.58 0 00-.16-.88c1.5-1.36 2.93-2.8 4.34-4.24a107.16 107.16 0 0011.66-14.19c.7-1 1.36-2 2-3.06a11.45 11.45 0 015.27 7.71 14.91 14.91 0 01-2 10.49c-3.87 6.59-11.27 10.3-18.24 12.73a86.39 86.39 0 01-23.25 4.24 209.32 209.32 0 01-23.63.13c-8.89-.46-18.08-1.79-26.25-5.51-.43-.2-.82.44-.38.65 7.51 3.73 15.59 5.42 23.92 6.07a195.25 195.25 0 0025.37.13c8.32-.44 16.71-1.49 24.64-4.17 7.32-2.47 14.92-6.31 19.09-13.11a17.15 17.15 0 002.53-12 13.47 13.47 0 00-6-9c.56-.89 1.11-1.8 1.64-2.71.53-.12 1.05-.26 1.58-.39l0 0a.62.62 0 00.56 0l0 .06.29.14a4.66 4.66 0 00.7.38c.37.22.72.45 1.07.7a15.21 15.21 0 012.27 2 14.43 14.43 0 013.15 5c.19.51 1 .31.82-.22a15.32 15.32 0 00-3.35-6.06 13.37 13.37 0 00-2.57-2.18c-.18-.13-.4-.29-.65-.45l2.85-.81c.76.77 1.81 1.25 2.58 2.06m-1.56-16.06a4.55 4.55 0 011.9.47c-.75.16-1.51.28-2.26.4zm2.16-5.65c2.54 1.2 5.08 2.45 7.51 3.86a50.77 50.77 0 01-6.71 2 6.16 6.16 0 00-2.53-1.26Q182.14 158 183 155.65zm9.33 3.13a.76.76 0 00-.29-.27c-2.85-1.46-5.67-2.87-8.63-4.08.36-1 .72-2.09 1-3.15a116.39 116.39 0 003.31-13.14 29 29 0 0111.22-11.94c4.77-2.82 11.54-4.08 16.28-.58a18.54 18.54 0 01-.44 11.95 32.55 32.55 0 01-6.41 9.6M53 136.07c-2-6-1.71-12.69 1.82-18.07a27.06 27.06 0 017.25-7A57 57 0 0171 105.87a90.7 90.7 0 0119.59-6.18 138.26 138.26 0 0122.66-2.8c4.23-.16 8.46-.12 12.68.08s8.55.81 12.83 1.09a.64.64 0 00.17-1.25 77.26 77.26 0 00-11.75-1.42c-3.94-.26-7.9-.33-11.85-.24A140.12 140.12 0 0091.8 97.71 95.38 95.38 0 0071 104c-6.22 2.79-12.77 6.6-16.93 12.15s-5.34 13.94-2 20.34A.55.55 0 0053 136.07z"
                    transform="translate(-25.04 -50.04)" />
                <path class="cls-5"
                    d="M65.71 112.31c.34-.29-.09-.75-.45-.58A18.69 18.69 0 0059.81 116a11 11 0 00-3.15 5.65c0 .23.29.43.42.17a20.36 20.36 0 013.61-5.42M174.78 112.64a.45.45 0 00.46-.77 31.16 31.16 0 00-9.67-4.24.48.48 0 00-.26.93C168.49 109.9 171.72 111 174.78 112.64zM135.41 106a127.46 127.46 0 00-57.48 6.49c-4.86 1.76-9.77 3.83-13.64 7.36A18.17 18.17 0 0058.46 130a11.57 11.57 0 01-2.21-5.74c0-.53-.85-.55-.84 0a13.86 13.86 0 002.84 8.08s0 .07 0 .1a.58.58 0 00.57.61 18.7 18.7 0 002.65 2.61c4 3.2 9.15 4.62 14.05 5.85a198 198 0 0034.28 5.71c21.92 1.56 44.6-1.38 64.51-11.05 4.06-2 8.76-4.85 10.07-9.49 1.49-5.28-2.33-9.5-6-12.71-.57-.49-1.39.3-.84.84 3 2.92 6.67 6.88 5.18 11.42a8.3 8.3 0 01-.91 1.9c-.54-9-10.81-12.92-18.21-15.57A127 127 0 00135.41 106zM145 143.5c-21 3.86-42.77 2.12-63.48-2.7-5.41-1.26-11.16-2.41-16.12-5a21.36 21.36 0 01-5.78-4.36c1.12-8.77 9.8-13.76 17.36-16.59a125.69 125.69 0 0181.06-2.36A77.31 77.31 0 01172.29 118c4.25 2.32 8.55 6.46 8.16 11.71 0 0 0 .05 0 .08a23.43 23.43 0 01-6.5 4.37c-1.36.67-2.73 1.29-4.12 1.9l.55-.42c1.07-.86 2.47-2.1 1.9-3.63a.49.49 0 00-.6-.34c-.5-.73-.44-1.23.19-1.51a.33.33 0 00-.33-.56c-.69.41-1.46 1.1-1.27 2a1.32 1.32 0 001.08 1c-.07 1.27-1.76 2.31-2.65 2.94-1.07.76-2.23 1.34-3.3 2.09a.44.44 0 00-.17.25M188.39 212.66a113.63 113.63 0 01-25.25 8.71 163.2 163.2 0 01-27 4.16c-5.09.31-10.22.21-15.32.09q-9.31-.21-18.6-1.05a188.18 188.18 0 01-34.12-6.17A112.9 112.9 0 0150.83 212c-2.81-1.32-5.59-2.73-8.26-4.3s-5.25-3.33-8-4.87a.35.35 0 00-.42.54c3.76 3.95 8.81 6.95 13.65 9.39a106.64 106.64 0 0015.49 6.28 177 177 0 0034 7 242.75 242.75 0 0036.06 1.56A150.28 150.28 0 00160.14 224a143.3 143.3 0 0015.75-4.32 64.23 64.23 0 0013.23-5.75A.72.72 0 00188.39 212.66z"
                    transform="translate(-25.04 -50.04)" />
                <path class="cls-5"
                    d="M103.84,135v.53a.8.8,0,0,0,.15.56.31.31,0,0,0,.45,0,.8.8,0,0,0,.15-.56V135A.38.38,0,0,0,103.84,135Z"
                    transform="translate(-25.04 -50.04)" />
            </g>
            <circle id="EyeLeft" cx="69.96" cy="110.96" r="6" />
            <circle id="EyeRight" cx="117.96" cy="109.96" r="6" />
            <path id="Smile" d="M104,187  C100,187 135,187 140,187" transform="translate(-25.04 -50.04)"
                stroke-width="2" stroke="#000" stroke-miterlimit="10" fill="none" />
            <g clip-path="url(#clip-path)" id="SteamCut">
                <g id="Steam">
                    <path class="cls-8"
                        d="M142.71 90c5.91 4.28 4.79 9 .75 14.08-3.72 4.71-6.76 9.92-5 16.17M138.42 76.63c-2 1.75-3.92 4.38-2.59 7.07M140.36 59.84c3.2 2.56 7.91 6.38 4.53 10.77M114.33 52.18c-1.5 8 4 10.14 8.45 15.13 5.35 6-.85 9.66-5.09 13.61-6.27 5.85-1.44 10 3.8 13.8 8.41 6.17 2.73 10.65-2 17M103.82 81.23C99.68 86.15 89.25 90 95.56 98c2.16 2.75 6.57 3.7 8.21 6.92s-.09 7.84-1.59 10.9M93.89 65.35a16.1 16.1 0 005.6 7.72M98.56 52A11.14 11.14 0 0094.08 57"
                        transform="translate(-25.04 -50.04)" />
                    <path class="cls-9"
                        d="M147.35 90c5.91 4.28 4.79 9 .76 14.08-3.73 4.71-6.77 9.92-5 16.17M143.07 76.63c-2 1.75-3.93 4.38-2.6 7.07M145 59.84c3.21 2.56 7.92 6.38 4.53 10.77M119 52.18c-1.51 8 4 10.14 8.45 15.13 5.35 6-.85 9.66-5.09 13.61-6.27 5.85-1.45 10 3.79 13.8 8.42 6.17 2.73 10.65-1.95 17M108.47 81.23C104.32 86.15 93.9 90 100.21 98c2.15 2.75 6.56 3.7 8.2 6.92s-.09 7.84-1.59 10.9M98.53 65.35a16.17 16.17 0 005.6 7.72M103.2 52A11.26 11.26 0 0098.72 57"
                        transform="translate(-25.04 -50.04)" />
                </g>
            </g>
        </svg>